<?xml version="1.0" encoding="utf-8"?>
<!-- Generator: Adobe Illustrator 17.1.0, SVG Export Plug-In . SVG Version: 6.00 Build 0)  -->
<!DOCTYPE svg PUBLIC "-//W3C//DTD SVG 1.1//EN" "http://www.w3.org/Graphics/SVG/1.1/DTD/svg11.dtd">
<svg version="1.1" id="Layer_1" xmlns="http://www.w3.org/2000/svg" xmlns:xlink="http://www.w3.org/1999/xlink" x="0px" y="0px"
	 viewBox="0 0 592.731 85.05" enable-background="new 0 0 592.731 85.05" xml:space="preserve">
<g>
	<path fill="#96CAE0" d="M97.137,74.895V10.098c0-3.365,0.768-5.891,2.303-7.573C100.974,0.842,102.959,0,105.392,0
		c2.508,0,4.539,0.833,6.093,2.497c1.553,1.664,2.331,4.197,2.331,7.601v64.797c0,3.402-0.778,5.946-2.331,7.629
		c-1.554,1.685-3.585,2.526-6.093,2.526c-2.396,0-4.371-0.852-5.924-2.554C97.914,80.794,97.137,78.259,97.137,74.895"/>
	<path fill="#96CAE0" d="M550.233,85.05c-23.434,0-42.5-19.065-42.5-42.498c0-23.435,19.066-42.5,42.5-42.5
		c23.435,0,42.498,19.065,42.498,42.5C592.731,65.985,573.668,85.05,550.233,85.05 M550.233,17.256
		c-13.948,0-25.296,11.348-25.296,25.296c0,13.946,11.348,25.294,25.296,25.294c13.946,0,25.294-11.348,25.294-25.294
		C575.527,28.604,564.179,17.256,550.233,17.256"/>
	<path fill="#96CAE0" d="M359.448,85.05c-23.434,0-42.498-19.065-42.498-42.498c0-23.435,19.064-42.5,42.498-42.5
		c23.435,0,42.5,19.065,42.5,42.5C401.948,65.985,382.882,85.05,359.448,85.05 M359.448,17.256
		c-13.946,0-25.294,11.348-25.294,25.296c0,13.946,11.348,25.294,25.294,25.294c13.949,0,25.294-11.348,25.294-25.294
		C384.742,28.604,373.397,17.256,359.448,17.256"/>
	<path fill="#96CAE0" d="M494.117,42.525L494.117,42.525v-0.012c-0.005-9.379-3.063-18.053-8.225-25.091
		c-7.508-10.235-19.474-16.991-33.013-17.39C452.459,0.02,452.04,0,451.616,0c-0.023,0-21.341,0.026-21.341,0.026
		c-3.643,0-6.282,0.83-7.913,2.49c-1.633,1.659-2.448,4.341-2.448,8.047v31.911v0.102v31.911c0,3.706,0.815,6.387,2.448,8.048
		c1.631,1.66,4.27,2.489,7.913,2.489c0,0,21.317,0.026,21.341,0.026c0.424,0,0.844-0.021,1.264-0.032
		c13.539-0.399,25.505-7.155,33.013-17.391c5.161-7.038,8.22-15.712,8.225-25.091v-0.01V42.525z M454.629,67.638
		c-2.057,0.134-4.27,0.157-6.648,0.157h-11.158V42.576v-0.102v-25.22h11.158c2.379,0,4.592,0.026,6.648,0.157
		c7.376,0.882,13.785,4.943,17.812,10.782c2.805,4.065,4.457,8.98,4.468,14.281c0,0.014,0.002,0.027,0.002,0.042v0.009v0.009
		c0,0.014-0.002,0.028-0.002,0.042c-0.011,5.3-1.663,10.215-4.468,14.282C468.415,62.697,462.005,66.755,454.629,67.638"/>
	<path fill="#96CAE0" d="M292.881,0.378c-3.105-0.965-6.461,0.256-8.269,3.011l-25.625,39.034L233.364,3.39
		c-1.808-2.755-5.165-3.976-8.27-3.011c-3.105,0.966-5.225,3.892-5.225,7.21v69.374c0,4.163,3.301,7.537,7.372,7.537
		c4.072,0,7.373-3.374,7.373-7.537V32.348l18.193,27.711c0.011,0.019,0.024,0.037,0.036,0.057l0.022,0.033
		c0.022,0.034,0.048,0.064,0.07,0.099c0.114,0.166,0.231,0.331,0.36,0.489c0.056,0.07,0.116,0.133,0.174,0.199
		c0.101,0.116,0.2,0.233,0.308,0.344c0.098,0.1,0.202,0.192,0.305,0.288c0.075,0.067,0.149,0.14,0.227,0.206
		c0.145,0.122,0.293,0.231,0.445,0.339c0.043,0.03,0.081,0.066,0.126,0.096c0.005,0.005,0.011,0.007,0.019,0.012
		c0.162,0.11,0.33,0.21,0.501,0.308c0.048,0.027,0.094,0.06,0.141,0.084c0.128,0.07,0.26,0.128,0.393,0.19
		c0.746,0.349,1.527,0.566,2.314,0.647c0.007,0,0.011,0.001,0.016,0.003c0.156,0.014,0.312,0.017,0.467,0.023
		c0.086,0.003,0.171,0.011,0.256,0.011c0.087,0,0.171-0.008,0.258-0.011c0.155-0.007,0.311-0.01,0.467-0.023
		c0.004-0.002,0.01-0.003,0.015-0.003c0.788-0.081,1.568-0.299,2.315-0.647c0.132-0.062,0.265-0.12,0.392-0.19
		c0.048-0.024,0.094-0.057,0.142-0.084c0.171-0.098,0.338-0.197,0.501-0.308c0.007-0.005,0.014-0.007,0.02-0.012
		c0.044-0.029,0.082-0.065,0.124-0.096c0.152-0.107,0.302-0.217,0.446-0.339c0.079-0.066,0.152-0.139,0.229-0.209
		c0.101-0.093,0.205-0.186,0.301-0.283c0.111-0.112,0.209-0.23,0.311-0.347c0.058-0.066,0.118-0.13,0.173-0.198
		c0.128-0.158,0.245-0.323,0.359-0.489c0.023-0.034,0.049-0.065,0.071-0.099l0.021-0.033c0.013-0.02,0.025-0.037,0.038-0.057
		l18.191-27.711v44.615c0,4.163,3.3,7.537,7.375,7.537c4.069,0,7.372-3.374,7.372-7.537V7.588
		C298.109,4.271,295.987,1.344,292.881,0.378"/>
	<path fill="#96CAE0" d="M194.779,82.464h-55.11c-2.899,0-6.12-1.813-7.313-4.636c-1.193-2.819-1.437-6.658,1.129-9.718
		l45.08-52.306h-37.243c-4.072,0-7.373-3.527-7.373-7.877s3.301-7.008,7.373-7.008h50.222c2.898,0,5.899,0.461,8.521,3.334
		c2.396,2.625,2.291,8.291-0.392,11.67l-43.558,50.788h38.664c4.072,0,7.036,3.526,7.036,7.875
		C201.815,78.937,198.851,82.464,194.779,82.464"/>
	<path fill="#96CAE0" d="M42.192,85.05c-12.229,0-23.32-4.849-31.229-13.653C3.995,63.64,0,53.419,0,43.354
		C0,11.771,26.255,0.001,42.806,0.001c16.272,0,28.217,7.979,28.717,8.318c3.665,2.487,4.645,7.512,2.19,11.224
		c-2.448,3.7-7.386,4.7-11.048,2.241c-0.213-0.138-8.687-5.603-19.859-5.603c-10.374,0-24.68,6.846-24.68,27.174
		c0,11.565,8.602,25.205,24.374,25.205c8.874,0,15.113-2.364,18.74-4.672V51.859H48.951c-4.412,0-7.988-3.621-7.988-8.089
		c0-4.468,3.576-8.09,7.988-8.09h20.277c4.411,0,7.987,3.622,7.987,8.09v24.062c0,2.188-0.874,4.281-2.424,5.806
		C69.436,78.902,57.685,85.05,42.192,85.05"/>
	<path opacity="0.3" fill="#1B75BB" d="M152.481,66.795l43.313-51.5c0,0,1.25-1.813,1.312-3.375c0.063-1.563,1.75-1.875,2.5-0.313
		C200.356,13.17,152.481,66.795,152.481,66.795"/>
	<path opacity="0.8" fill="#FFFFFF" d="M71.481,42.233c0,0,1.25,0.75,1.25,2.5v19.625c0,0,0.187,2.125-0.625,2.875
		c-0.812,0.75,2.625-0.375,2.625-3.125V45.233C74.731,45.233,74.606,42.545,71.481,42.233"/>
	<path opacity="0.8" fill="#FFFFFF" d="M8.231,67.42c0,0,14.625,21.75,43,15.938C51.231,83.359,26.168,87.795,8.231,67.42"/>
	<path opacity="0.2" fill="#FFFFFF" d="M18.606,24.983c0,0-11.75,19-0.625,32.438c1,1.125,2.062,1.5,0.875-0.627
		C17.669,54.669,11.544,43.67,18.606,24.983"/>
	<path opacity="0.2" fill="#FFFFFF" d="M109.481,5.733c0,0,1.812,0.875,1.812,2.75v65.063c0,0-0.562,1.312-1.687,1.75V8.608
		C109.606,8.608,109.918,7.796,109.481,5.733"/>
	<path opacity="0.2" fill="#FFFFFF" d="M12.064,40.878c0,0-1.584-16.083,12.583-21.249c1.5-0.334,2.917,0.75,1.5,2.25
		C24.731,23.378,16.814,26.544,12.064,40.878"/>
	<path opacity="0.2" fill="#FFFFFF" d="M194.564,9.461c0,0,0.167,1.667-1.167,3.25c-1.333,1.584-48.583,58.251-48.583,58.251
		l10.333-3.834l38.667-45.499C193.814,21.629,203.397,12.211,194.564,9.461"/>
	<path opacity="0.2" fill="#FFFFFF" d="M132.481,72.837c0,0-1.417,6.791,5.833,8.708c0.917,0.25,1.875,0,1.875,0h53.709
		c0,0,1.5-0.166,2.5-1.458c0,0-0.792,2.125-2.834,2.125h-54.583C138.981,82.212,131.023,81.129,132.481,72.837"/>
	<path opacity="0.2" fill="#FFFFFF" d="M196.689,79.67c0,0,0.542-1.668-0.375-1.709c-0.917-0.041-2.042-0.541-1.708-0.958
		c0.333-0.417-0.459-2.041,0.166-3.083s2.334-1.042,2.042,0.458c-0.292,1.5-0.083,2.166,0.208,1.958
		C197.314,76.128,199.439,77.337,196.689,79.67"/>
	<path opacity="0.2" fill="#FFFFFF" d="M235.439,32.962l17.333,26.375c0,0,2.625,4.041,6.334,2.833c0,0-3,0.751-7.25-5.708
		C247.606,50.003,235.439,32.962,235.439,32.962"/>
	<path opacity="0.2" fill="#FFFFFF" d="M220.523,78.878c0,0,2.375,3.542,6.125,3.542C226.648,82.42,223.023,84.461,220.523,78.878"
		/>
	<path opacity="0.2" fill="#FFFFFF" d="M233.043,32.733l-2.063,39.75c0,0-0.312,1.875,0.501,2c0.812,0.125,1.312,0.125,1.687-3.375
		S233.043,32.733,233.043,32.733"/>
	<path opacity="0.2" fill="#FFFFFF" d="M258.668,57.108c0,0,2.125-0.562,3.313-4.25c2.874-3.938,22.499-30.563,22.499-30.563
		s-0.312,3.626-2.062,6.126s-17.813,25.248-17.813,25.248S262.543,57.669,258.668,57.108"/>
	<path opacity="0.2" fill="#FFFFFF" d="M294.043,6.17c0,0,3.125,0.437,3.125,4.375V74.17c0,0-0.188,1.563-1.438,1.563
		c-1.25,0-1.25-1.688-1.25-3.5V9.858C294.48,9.858,295.293,7.92,294.043,6.17"/>
	<path fill="#FFFFFF" d="M286.731,2.629c0,0,5.5-0.834,8.75,2.5C295.481,5.129,292.689-0.413,286.731,2.629"/>
	<path opacity="0.2" fill="#FFFFFF" d="M394.606,57.67c0,0,13.5-22.5-9.5-45.125C385.106,12.545,411.856,31.045,394.606,57.67"/>
	<path opacity="0.2" fill="#FFFFFF" d="M360.338,11.92c15.54,0,28.138,12.298,28.138,27.469c0,3.002-0.5,5.887-1.412,8.59
		c1.393-3.221,2.167-6.743,2.167-10.435c0-15.291-13.162-27.688-29.396-27.688c-16.235,0-29.396,12.397-29.396,27.688
		c0,7.115,2.852,13.603,7.536,18.507c-3.62-4.622-5.773-10.396-5.773-16.663C332.202,24.218,344.798,11.92,360.338,11.92"/>
	<path opacity="0.2" fill="#FFFFFF" d="M585.356,57.67c0,0,13.5-22.5-9.5-45.125C575.856,12.545,602.606,31.045,585.356,57.67"/>
	<path opacity="0.2" fill="#FFFFFF" d="M551.088,11.92c15.54,0,28.138,12.298,28.138,27.469c0,3.002-0.5,5.887-1.412,8.59
		c1.393-3.221,2.167-6.743,2.167-10.435c0-15.291-13.162-27.688-29.396-27.688c-16.235,0-29.396,12.397-29.396,27.688
		c0,7.115,2.852,13.603,7.536,18.507c-3.62-4.622-5.773-10.396-5.773-16.663C522.952,24.218,535.548,11.92,551.088,11.92"/>
	<path opacity="0.2" fill="#FFFFFF" d="M481.648,44.879c0,0,5.084-20.584-16.833-31.167c-2.583-1.167-8.834-2.5-12.667-2.5h-19.75
		c0,0,0.834,1.916,0.834,3.083v57.084l2.25-2.584v-54.75h17.583c0,0,15.584-0.25,23.667,11.417
		C478.732,28.629,481.898,34.046,481.648,44.879"/>
	<path opacity="0.2" fill="#FFFFFF" d="M424.898,3.545h30.167c0,0,15.249,0.917,25.333,10.334c0,0-5.834-8.334-23.75-11.917
		c-1.166-0.25-3-0.167-3-0.167h-25.833C427.815,1.795,425.314,2.295,424.898,3.545"/>
	<path opacity="0.2" fill="#FFFFFF" d="M476.065,33.129c0,0,3.834,9.166-0.666,20.083C475.399,53.212,482.065,44.463,476.065,33.129
		"/>
	<path opacity="0.2" fill="#FFFFFF" d="M485.065,19.961c0,0,7.167,10.334,7.167,21.334s-4.208,21.625-10.333,27.75
		c0,0,9.332-11.333,8.916-27.5C490.815,37.462,490.231,29.795,485.065,19.961"/>
	<path opacity="0.2" fill="#FFFFFF" d="M551.043,78.045c-20.4,0-36.938-16.537-36.938-36.938c0-7.813,2.433-15.054,6.572-21.022
		c-4.746,6.214-7.572,13.974-7.572,22.397c0,20.401,16.538,36.938,36.938,36.938c12.587,0,23.697-6.301,30.366-15.915
		C573.661,72.34,563.02,78.045,551.043,78.045"/>
	<path opacity="0.2" fill="#FFFFFF" d="M359.668,78.045c-20.4,0-36.938-16.537-36.938-36.938c0-7.813,2.433-15.054,6.572-21.022
		c-4.746,6.214-7.572,13.974-7.572,22.397c0,20.401,16.538,36.938,36.938,36.938c12.587,0,23.697-6.301,30.366-15.915
		C382.286,72.34,371.645,78.045,359.668,78.045"/>
	<path opacity="0.2" fill="#FFFFFF" d="M46.147,0.629c0,0,15.75,1.583,26.167,9.25c1,0.833,0.833,6.249-1.084,6.416
		c-1.916,0.167-1.666-0.5-1.916,0.167c-0.25,0.667,0.667,1.5,0.25,1.917c-0.417,0.416-4.084,0.166-3.167-2.084
		c0.917-2.25,2.833-0.5,3.083-1.916c0.25-1.417,0.084-2.084,0.834-2.584C71.064,11.295,66.98,5.212,46.147,0.629"/>
	<path opacity="0.3" fill="#1B75BB" d="M221.668,4.17c0,0,4.312-6,12.438,1.406c0,0-1.407-0.906-2.407-1.156
		c0,0,1.719,1.5,2.25,2.656c0,0-3.031-3.656-7.281-3.375C224.918,3.858,220.918,5.795,221.668,4.17"/>
	<path opacity="0.3" fill="#1B75BB" d="M220.856,78.858c0,0,4.625,5.562,8.875,1.969c0,0-0.219-0.782-1.406-0.157
		c-1.188,0.627-5.375,0.595-6.969-3.187c0,0,0.937,2.125,1.406,2.594C222.762,80.077,221.543,79.514,220.856,78.858"/>
	<path opacity="0.3" fill="#1B75BB" d="M284.793,4.17c0,0,5.031-4.281,9.812,0.812c0,0-4.594-3.468-8.938-0.062
		C285.262,5.327,283.949,5.265,284.793,4.17"/>
	<path opacity="0.3" fill="#1B75BB" d="M31.814,3.545c0,0,22.25-3.75,36.417,7.584C68.231,11.129,58.231-2.705,31.814,3.545"/>
	<path opacity="0.3" fill="#1B75BB" d="M34.981,14.795c0,0,12.834-3.667,22.167,2.75c0,0,0.916,0.834-0.834,0.167
		S47.898,13.711,34.981,14.795"/>
	<path opacity="0.3" fill="#1B75BB" d="M62.564,20.504c0,0,4.125,2.582,6.75-0.834c0.333-0.334,0.125,0.417-0.542,1.209
		C68.106,21.67,65.564,23.379,62.564,20.504"/>
	<path opacity="0.3" fill="#1B75BB" d="M45.939,38.92h24.667c0,0-1.5-1.208-2.5-1.208h-20.75
		C47.356,37.712,46.147,38.17,45.939,38.92"/>
	<path opacity="0.3" fill="#1B75BB" d="M26.564,65.628c0,0,9.25,6.167,22.917,3.667C49.481,69.295,36.731,75.211,26.564,65.628"/>
	<path opacity="0.3" fill="#1B75BB" d="M8.481,66.629c0,0,21.917,30.584,62.417,7.5C70.898,74.129,36.314,95.546,8.481,66.629"/>
	<path opacity="0.3" fill="#1B75BB" d="M101.981,3.712c0,0,3.125-0.833,5.167,0.125C107.148,3.837,104.939,1.212,101.981,3.712"/>
	<path opacity="0.3" fill="#1B75BB" d="M101.314,3.129c0,0,1.166-1.125,2.208-1.167C103.522,1.962,102.272,1.629,101.314,3.129"/>
	<path opacity="0.3" fill="#1B75BB" d="M99.231,78.336c0,0,2.167,3.042,5.875,3.042c1.875-0.042,3.375-1.042,3.375-1.042
		s0.458,0.459-0.5,1.042S101.648,83.211,99.231,78.336"/>
	<path opacity="0.3" fill="#1B75BB" d="M136.147,12.42c0,0,1.583,2.709,4.208,2.709h36.959l-37.209-0.834
		C140.105,14.295,137.939,14.253,136.147,12.42"/>
	<path opacity="0.3" fill="#1B75BB" d="M138.814,4.42h55.083c0,0-0.375-0.75-1.125-1.125h-52.708
		C140.064,3.295,138.897,3.67,138.814,4.42"/>
	<path opacity="0.3" fill="#1B75BB" d="M137.731,4.129c0,0,1-1.167,2.167-1.25C139.898,2.879,137.898,2.629,137.731,4.129"/>
	<path opacity="0.3" fill="#1B75BB" d="M148.814,70.128h44.083c0,0,1.5-0.958,0.167-0.958h-42.25L148.814,70.128z"/>
	<path opacity="0.3" fill="#1B75BB" d="M133.273,77.087c0,0,2,4.125,5.417,4.125h55.083c0,0,1.208,0.041,2-1.167
		c0,0-0.875,0.917-2.208,0.917c-1.334,0-55.167-0.667-55.167-0.667S135.565,80.129,133.273,77.087"/>
	<path opacity="0.3" fill="#1B75BB" d="M253.387,57.545c0,0,3.688,5.469,7.562,1.906C260.949,59.452,257.731,64.827,253.387,57.545"
		/>
	<path opacity="0.3" fill="#1B75BB" d="M284.418,77.202c0,0,2.917,5.325,7.156,4.681C291.574,81.882,286.317,84.121,284.418,77.202"
		/>
	<path opacity="0.3" fill="#1B75BB" d="M329.168,13.92c0,0,5.5-5.875,12.562-9.063C341.731,4.857,334.605,6.608,329.168,13.92"/>
	<path opacity="0.3" fill="#1B75BB" d="M331.543,13.545c0,0,12.312-11.438,29.812-10.75C361.355,2.795,345.231-0.643,331.543,13.545
		"/>
	<path opacity="0.3" fill="#1B75BB" d="M360.106,70.17c0,0,2.938-0.312,4.125-0.875c1.5-0.187,7.812-0.937,14.375-6.875
		C378.606,62.42,372.606,71.607,360.106,70.17"/>
	<path opacity="0.3" fill="#1B75BB" d="M356.543,15.92c0,0,13.688-0.937,21.625,9.188C378.168,25.108,372.356,14.608,356.543,15.92"
		/>
	<path opacity="0.3" fill="#1B75BB" d="M355.168,15.045c0,0,19.187-3.375,28.125,15.188
		C383.293,30.233,378.855,11.42,355.168,15.045"/>
	<path opacity="0.3" fill="#1B75BB" d="M321.981,59.858c0,0,7.811,18.25,31.561,21.812
		C353.542,81.669,330.418,80.733,321.981,59.858"/>
	<path opacity="0.3" fill="#1B75BB" d="M520.251,13.92c0,0,5.5-5.875,12.564-9.063C532.815,4.857,525.688,6.608,520.251,13.92"/>
	<path opacity="0.3" fill="#1B75BB" d="M522.626,13.545c0,0,12.314-11.438,29.812-10.75C552.438,2.795,536.315-0.643,522.626,13.545
		"/>
	<path opacity="0.3" fill="#1B75BB" d="M551.189,70.17c0,0,2.938-0.312,4.125-0.875c1.5-0.187,7.813-0.937,14.375-6.875
		C569.689,62.42,563.689,71.607,551.189,70.17"/>
	<path opacity="0.3" fill="#1B75BB" d="M547.626,15.92c0,0,13.689-0.937,21.625,9.188C569.251,25.108,563.44,14.608,547.626,15.92"
		/>
	<path opacity="0.3" fill="#1B75BB" d="M546.251,15.045c0,0,19.187-3.375,28.125,15.188
		C574.376,30.233,569.938,11.42,546.251,15.045"/>
	<path opacity="0.3" fill="#1B75BB" d="M513.064,59.858c0,0,7.811,18.25,31.561,21.812
		C544.625,81.669,521.503,80.733,513.064,59.858"/>
	<path opacity="0.3" fill="#1B75BB" d="M423.887,5.67c0,0,1.656-2.313,3.281-2.5c1.625-0.188,1.562,0.719,1.062,1
		c-0.5,0.281-2.688,1.094-3.312,1.562C424.293,6.202,423.418,6.202,423.887,5.67"/>
	<path opacity="0.3" fill="#1B75BB" d="M459.856,16.92c0,0,11.062,3.438,15.688,14.375C475.543,31.295,473.293,19.295,459.856,16.92
		"/>
	<path opacity="0.3" fill="#1B75BB" d="M453.043,69.358c0,0,10.625-1.312,19.062-9C472.105,60.358,467.731,68.983,453.043,69.358"/>
	<path opacity="0.3" fill="#1B75BB" d="M421.981,76.295c0,0,2.438,3.813,5.686,4.312c0,0-0.561,0.875-1.936,0.375
		S421.418,78.295,421.981,76.295"/>
	<path opacity="0.3" fill="#1B75BB" d="M43.064,47.628c0,0,2.125,2.542,4.708,2.542h12.75l0.5-0.958H47.064
		C47.064,49.212,44.856,49.336,43.064,47.628"/>
	<path opacity="0.8" fill="#FFFFFF" d="M3.856,41.858c0-20.4,16.537-36.938,36.938-36.938c4.184,0,8.201,0.706,11.951,1.989
		c-4.406-1.844-9.246-2.864-14.326-2.864c-20.401,0-36.938,16.426-36.938,36.688c0,14.157,8.078,26.433,19.901,32.55
		C10.865,66.773,3.856,55.136,3.856,41.858"/>
	<path opacity="0.8" fill="#FFFFFF" d="M20.293,24.608c0,0,4.875-5.937,12.125-8.313c0,0-4.938-0.812-9.812,3.751
		C20.231,22.358,18.981,25.483,20.293,24.608"/>
	<path opacity="0.8" fill="#FFFFFF" d="M62.231,48.858l2.063-3.563v20.625c0,0-7.75,8.063-26.063,7c0,0,15.625-0.187,23.938-8.562
		L62.231,48.858z"/>
	<path opacity="0.8" fill="#FFFFFF" d="M57.543,79.045c0,0,8.188-2.875,13.25-8.438C71.418,70.17,74.543,74.359,57.543,79.045"/>
	<path opacity="0.8" fill="#FFFFFF" d="M44.668,44.92c0,0-1.5-2.875,1.937-4.562c0,0-2.124-1.375-4.187-0.5
		C40.356,40.733,41.543,44.67,44.668,44.92"/>
	<path opacity="0.8" fill="#FFFFFF" d="M64.231,6.045c0,0,12.063,5.562,6.687,12.938c-0.125,0.375,1-0.25,1.25-0.5
		c0.251-0.25-0.312,1.25-0.812,1.75C71.356,20.233,80.731,12.045,64.231,6.045"/>
	<path opacity="0.8" fill="#FFFFFF" d="M100.481,75.92V8.107c0,0,0-2.187,2.688-3.5c0,0-4.938-0.375-4.938,3.688v65.25
		C98.231,73.545,98.606,75.109,100.481,75.92"/>
	<path opacity="0.8" fill="#FFFFFF" d="M106.481,80.108c0,0,0.875-0.812,1.312-1.562c0.438-0.752,1.313-0.313,0.876,0.687
		C108.231,80.233,106.356,81.669,106.481,80.108"/>
	<path opacity="0.8" fill="#FFFFFF" d="M107.647,1.879c0,0,5.833,0.832,5.833,7.916v65.75c0,0-0.499,4.584-4.166,5.667
		c0,0,2.666-1.501,2.666-6.417v-65.5C111.98,9.295,112.23,4.295,107.647,1.879"/>
	<path opacity="0.8" fill="#FFFFFF" d="M137.543,10.545c0,0-0.75-2.375,1.375-4.875c0,0-3.438-0.75-4.063,1
		C134.543,7.67,135.105,9.42,137.543,10.545"/>
	<path opacity="0.8" fill="#FFFFFF" d="M194.856,2.295c0,0,5.542,1.541,6.208,5.625c0.25,2.166-0.291,6.958-6.458,12.75
		c0,0,3.167-4.291,1.667-3.041s-2.459,2.832-0.084-0.709s4.959-8.916,0.709-11.875C196.023,4.545,192.481,3.336,194.856,2.295"/>
	<path opacity="0.8" fill="#FFFFFF" d="M136.231,75.858c0,0-1.062-3.188,3.125-8.063s45.625-54.875,45.625-54.875l-5.75,2.75
		l-43.5,50.688C135.731,66.358,130.544,72.794,136.231,75.858"/>
	<path opacity="0.8" fill="#FFFFFF" d="M155.523,67.254h39.333c0,0,6.25,0.917,6.25,7.75c0,1.375-1.125,4.708-3.75,5.708
		c0,0,2.917-2.707,1.959-6.666c-0.959-3.959-4.917-5.167-6.167-5.167h-42L155.523,67.254z"/>
	<path fill="#FFFFFF" d="M194.064,80.546c0,0,1.333-0.501,1.917-1.334c0.583-0.833-0.084-1.167-0.459-1
		S192.647,79.796,194.064,80.546"/>
	<path opacity="0.8" fill="#FFFFFF" d="M222.814,79.379V6.129c0,0,0.667-2.501,4.083-2.084c0,0-6.416-1.5-6.416,3.334v69.749
		C220.481,77.128,221.147,79.213,222.814,79.379"/>
	<path opacity="0.8" fill="#FFFFFF" d="M226.981,80.545c0,0,1.25-0.749,1.917-1.416c0.666-0.667,1.416-0.25,1.083,0.583
		C229.648,80.545,225.398,81.961,226.981,80.545"/>
	<path opacity="0.8" fill="#FFFFFF" d="M231.898,79.878c0,0,2.083-1.582,2.083-4.666v-43.5l-1.083-1.084v44.5
		C232.898,75.128,233.315,77.628,231.898,79.878"/>
	<path opacity="0.8" fill="#FFFFFF" d="M259.148,43.462l24.667-37.833c0,0,1.416-0.834,2.416-0.584l-27,43.667L259.148,43.462z"/>
	<path opacity="0.8" fill="#FFFFFF" d="M233.481,27.545l22.583,30.333c0,0,2.417,2.666,5.334,0.25c0,0-3.167,4.418-6.417,0.334
		C251.731,54.378,233.481,27.545,233.481,27.545"/>
	<path opacity="0.8" fill="#FFFFFF" d="M262.481,59.795c0,0,1.917-1.666,2.083-4.333c2.584-3.583,17.584-25.25,17.584-25.25
		l-0.167,2.417l-15.917,24.333C266.064,56.962,264.064,59.711,262.481,59.795"/>
	<path opacity="0.8" fill="#FFFFFF" d="M284.168,73.233v-42.5l1.125-2.25v43.313c0,0,0.5,2.498,0.187,2.873
		C285.168,75.044,284.23,74.983,284.168,73.233"/>
	<path opacity="0.8" fill="#FFFFFF" d="M292.106,81.733c0,0,2.375-0.687,3.375-2.625c1-1.937,0.625,0.625,0.25,1.25
		S292.668,83.419,292.106,81.733"/>
	<path opacity="0.8" fill="#FFFFFF" d="M321.814,52.878c0,0-7.083-21.417,11.167-38.917
		C332.981,13.961,310.731,25.127,321.814,52.878"/>
	<path opacity="0.8" fill="#FFFFFF" d="M321.231,56.128c0,0,6.251,15.751,26.917,22.834c0,0-7.166-2.333-9.75-3.5
		c0,0,4.499,2.832,8.416,4.416C346.814,79.878,328.314,75.128,321.231,56.128"/>
	<path opacity="0.8" fill="#FFFFFF" d="M352.981,80.962c0,0,15.584,1.834,29.417-7C382.398,73.962,370.981,84.379,352.981,80.962"/>
	<path opacity="0.8" fill="#FFFFFF" d="M379.481,63.962c0,0,13.584-9.751,7.75-30.417c0,0,1.332,7.583-1.584,14.583l-0.333-3.083
		c0,0-1.999,16.749-18.583,21.833c0,0,12.333-3.332,16.583-12.416C383.314,54.462,383.065,59.462,379.481,63.962"/>
	<path opacity="0.8" fill="#FFFFFF" d="M342.897,18.711c0,0,7.334-5.332,17.167-4.582C360.064,14.129,353.23,9.961,342.897,18.711"
		/>
	<path opacity="0.8" fill="#FFFFFF" d="M384.897,31.378c0,0-0.499-11.083-13.916-16.917
		C370.981,14.461,381.563,20.544,384.897,31.378"/>
	<path opacity="0.8" fill="#FFFFFF" d="M333.894,41.837c0-13.017,9.463-23.818,21.882-25.918
		c-13.349,1.29-23.795,12.81-23.795,26.835c0,14.887,11.772,26.958,26.291,26.958c6.321,0,12.12-2.289,16.654-6.101
		c-4.204,2.852-9.276,4.519-14.739,4.519C345.666,68.13,333.894,56.359,333.894,41.837"/>
	<path opacity="0.8" fill="#FFFFFF" d="M401.856,42.276c0-22.723-18.029-41.144-40.272-41.144c-2.732,0-5.401,0.283-7.981,0.812
		c1.341-0.119,2.698-0.188,4.071-0.188c23.8,0,43.093,18.421,43.093,41.143c0,19.565-14.304,35.924-33.467,40.101
		C386.833,80.164,401.856,63.016,401.856,42.276"/>
	<path opacity="0.8" fill="#FFFFFF" d="M512.689,52.878c0,0-7.083-21.417,11.167-38.917
		C523.856,13.961,501.606,25.127,512.689,52.878"/>
	<path opacity="0.8" fill="#FFFFFF" d="M512.106,56.128c0,0,6.251,15.751,26.917,22.834c0,0-7.166-2.333-9.75-3.5
		c0,0,4.499,2.832,8.416,4.416C537.689,79.878,519.189,75.128,512.106,56.128"/>
	<path opacity="0.8" fill="#FFFFFF" d="M543.856,80.962c0,0,15.584,1.834,29.417-7C573.273,73.962,561.856,84.379,543.856,80.962"/>
	<path opacity="0.8" fill="#FFFFFF" d="M570.356,63.962c0,0,13.584-9.751,7.75-30.417c0,0,1.332,7.583-1.584,14.583l-0.333-3.083
		c0,0-1.999,16.749-18.583,21.833c0,0,12.333-3.332,16.583-12.416C574.189,54.462,573.94,59.462,570.356,63.962"/>
	<path opacity="0.8" fill="#FFFFFF" d="M533.772,18.711c0,0,7.334-5.332,17.167-4.582C550.939,14.129,544.105,9.961,533.772,18.711"
		/>
	<path opacity="0.8" fill="#FFFFFF" d="M575.772,31.378c0,0-0.499-11.083-13.916-16.917
		C561.856,14.461,572.438,20.544,575.772,31.378"/>
	<path opacity="0.8" fill="#FFFFFF" d="M471.481,63.962c0,0,13.584-9.751,7.75-30.417c0,0,1.332,7.583-1.584,14.583l-0.333-3.083
		c0,0-1.999,16.749-18.583,21.833c0,0,12.333-3.332,16.583-12.416C475.314,54.462,475.065,59.462,471.481,63.962"/>
	<path opacity="0.8" fill="#FFFFFF" d="M476.897,31.378c0,0-0.499-11.083-13.916-16.917
		C462.981,14.461,473.563,20.544,476.897,31.378"/>
	<path opacity="0.8" fill="#FFFFFF" d="M524.769,41.837c0-13.017,9.463-23.818,21.882-25.918
		c-13.349,1.29-23.795,12.81-23.795,26.835c0,14.887,11.771,26.958,26.291,26.958c6.321,0,12.12-2.289,16.654-6.101
		c-4.204,2.852-9.276,4.519-14.739,4.519C536.542,68.13,524.769,56.359,524.769,41.837"/>
	<path opacity="0.8" fill="#FFFFFF" d="M592.731,42.276c0-22.723-18.029-41.144-40.272-41.144c-2.732,0-5.401,0.283-7.981,0.812
		c1.341-0.119,2.698-0.188,4.071-0.188c23.8,0,43.093,18.421,43.093,41.143c0,19.565-14.304,35.924-33.467,40.101
		C577.708,80.164,592.731,63.016,592.731,42.276"/>
	<path opacity="0.8" fill="#FFFFFF" d="M425.398,6.211c0,0-1.5,1.751-1.5,3.418v65.416c0,0-1.917-0.916-1.917-2.333V9.461
		l-1.25,0.418c0,0-0.166-2.167,0.167-2.75c0.333-0.584-0.5,0.25-0.5,0.25s0.332-4.668,5.416-5.084c0,0-3.832,1.25-4.166,4.25
		l0.5,0.916c0,0,0.833-1.083,1.083-0.75C423.481,7.045,424.148,7.128,425.398,6.211"/>
	<path opacity="0.8" fill="#FFFFFF" d="M436.231,16.108h15.25c0,0,3.936,0,6.875,1c0,0-2.875-2.187-7-2.187h-16.438L436.231,16.108z
		"/>
	<path opacity="0.8" fill="#FFFFFF" d="M428.981,80.108l-1.812,1.562h23.374c0,0,11.251,0.688,20.064-5.5c0,0-7.5,4-19.25,4
		S428.981,80.108,428.981,80.108"/>
	<path fill="#FFFFFF" d="M72.418,37.92c0,0,4.25,1.562,4.25,5.25v24.687c0,0-0.125,3.063-2.5,4.377c0,0,1.375-1.625,1.375-4.627
		V43.295C75.543,43.295,76.106,40.733,72.418,37.92"/>
	<path opacity="0.2" fill="#FFFFFF" d="M243.481,24.233l14,21.561c0,0,0.75,3.563,0.375,3.438S243.481,24.233,243.481,24.233"/>
</g>
</svg>
